<mxfile host="app.diagrams.net" modified="2022-12-21T07:03:39.868Z" agent="5.0 (Windows NT 10.0; Win64; x64) AppleWebKit/537.36 (KHTML, like Gecko) Chrome/107.0.0.0 Safari/537.36" etag="LprasjGroWVbzzRKbaTN" version="20.7.4" type="github">
  <diagram name="Page-1" id="6133507b-19e7-1e82-6fc7-422aa6c4b21f">
    <mxGraphModel dx="1434" dy="778" grid="1" gridSize="10" guides="1" tooltips="1" connect="1" arrows="1" fold="1" page="1" pageScale="1" pageWidth="1100" pageHeight="850" background="none" math="0" shadow="0">
      <root>
        <mxCell id="0" />
        <mxCell id="1" parent="0" />
        <mxCell id="47IN5PAAti82-iw40Oya-53" value="" style="edgeStyle=orthogonalEdgeStyle;rounded=0;orthogonalLoop=1;jettySize=auto;html=1;entryX=0.225;entryY=-0.133;entryDx=0;entryDy=0;entryPerimeter=0;exitX=0.317;exitY=1.014;exitDx=0;exitDy=0;exitPerimeter=0;" edge="1" parent="1" source="47IN5PAAti82-iw40Oya-1" target="47IN5PAAti82-iw40Oya-43">
          <mxGeometry relative="1" as="geometry">
            <mxPoint x="420" y="260" as="sourcePoint" />
            <mxPoint x="417" y="470" as="targetPoint" />
          </mxGeometry>
        </mxCell>
        <mxCell id="47IN5PAAti82-iw40Oya-59" value="" style="edgeStyle=orthogonalEdgeStyle;rounded=0;orthogonalLoop=1;jettySize=auto;html=1;entryX=0.95;entryY=0.75;entryDx=0;entryDy=0;entryPerimeter=0;" edge="1" parent="1" source="47IN5PAAti82-iw40Oya-1" target="47IN5PAAti82-iw40Oya-2">
          <mxGeometry relative="1" as="geometry" />
        </mxCell>
        <mxCell id="47IN5PAAti82-iw40Oya-1" value="DispatcherServlet" style="rounded=0;whiteSpace=wrap;html=1;" vertex="1" parent="1">
          <mxGeometry x="380" y="130" width="120" height="140" as="geometry" />
        </mxCell>
        <mxCell id="47IN5PAAti82-iw40Oya-23" style="edgeStyle=orthogonalEdgeStyle;rounded=0;orthogonalLoop=1;jettySize=auto;html=1;entryX=-0.017;entryY=0.357;entryDx=0;entryDy=0;entryPerimeter=0;" edge="1" parent="1" source="47IN5PAAti82-iw40Oya-2" target="47IN5PAAti82-iw40Oya-1">
          <mxGeometry relative="1" as="geometry" />
        </mxCell>
        <mxCell id="47IN5PAAti82-iw40Oya-2" value="User" style="ellipse;whiteSpace=wrap;html=1;aspect=fixed;" vertex="1" parent="1">
          <mxGeometry x="110" y="140" width="80" height="80" as="geometry" />
        </mxCell>
        <mxCell id="47IN5PAAti82-iw40Oya-6" value="1.发送请求" style="text;html=1;align=center;verticalAlign=middle;resizable=0;points=[];autosize=1;strokeColor=none;fillColor=none;" vertex="1" parent="1">
          <mxGeometry x="240" y="140" width="80" height="30" as="geometry" />
        </mxCell>
        <UserObject label="前端控制器" placeholders="1" name="Variable" id="47IN5PAAti82-iw40Oya-8">
          <mxCell style="text;html=1;strokeColor=none;fillColor=none;align=center;verticalAlign=middle;whiteSpace=wrap;overflow=hidden;" vertex="1" parent="1">
            <mxGeometry x="400" y="100" width="80" height="20" as="geometry" />
          </mxCell>
        </UserObject>
        <mxCell id="47IN5PAAti82-iw40Oya-12" value="&lt;span style=&quot;&quot;&gt;HandlerMapping&lt;/span&gt;" style="rounded=0;whiteSpace=wrap;html=1;" vertex="1" parent="1">
          <mxGeometry x="800" y="130" width="120" height="140" as="geometry" />
        </mxCell>
        <mxCell id="47IN5PAAti82-iw40Oya-14" value="2.调用HandlerMapping,获取Handler" style="text;html=1;align=center;verticalAlign=middle;resizable=0;points=[];autosize=1;strokeColor=none;fillColor=none;" vertex="1" parent="1">
          <mxGeometry x="540" y="130" width="210" height="30" as="geometry" />
        </mxCell>
        <mxCell id="47IN5PAAti82-iw40Oya-16" value="处理器映射器" style="text;html=1;align=center;verticalAlign=middle;resizable=0;points=[];autosize=1;strokeColor=none;fillColor=none;" vertex="1" parent="1">
          <mxGeometry x="810" y="100" width="100" height="30" as="geometry" />
        </mxCell>
        <mxCell id="47IN5PAAti82-iw40Oya-18" value="" style="endArrow=classic;html=1;rounded=0;entryX=0;entryY=0.25;entryDx=0;entryDy=0;" edge="1" parent="1" target="47IN5PAAti82-iw40Oya-12">
          <mxGeometry width="50" height="50" relative="1" as="geometry">
            <mxPoint x="500" y="165" as="sourcePoint" />
            <mxPoint x="760" y="170" as="targetPoint" />
          </mxGeometry>
        </mxCell>
        <mxCell id="47IN5PAAti82-iw40Oya-19" value="" style="endArrow=classic;html=1;rounded=0;exitX=0;exitY=0.571;exitDx=0;exitDy=0;exitPerimeter=0;" edge="1" parent="1" source="47IN5PAAti82-iw40Oya-12">
          <mxGeometry width="50" height="50" relative="1" as="geometry">
            <mxPoint x="580" y="340" as="sourcePoint" />
            <mxPoint x="500" y="210" as="targetPoint" />
          </mxGeometry>
        </mxCell>
        <mxCell id="47IN5PAAti82-iw40Oya-20" value="3.返回找到的具体Handler（可通过注解，xml查找）" style="text;html=1;align=center;verticalAlign=middle;resizable=0;points=[];autosize=1;strokeColor=none;fillColor=none;" vertex="1" parent="1">
          <mxGeometry x="500" y="215" width="300" height="30" as="geometry" />
        </mxCell>
        <mxCell id="47IN5PAAti82-iw40Oya-24" value="&lt;span style=&quot;&quot;&gt;HandlerAdapter&lt;/span&gt;" style="rounded=0;whiteSpace=wrap;html=1;" vertex="1" parent="1">
          <mxGeometry x="800" y="510" width="120" height="140" as="geometry" />
        </mxCell>
        <mxCell id="47IN5PAAti82-iw40Oya-26" value="处理器适配器" style="text;html=1;align=center;verticalAlign=middle;resizable=0;points=[];autosize=1;strokeColor=none;fillColor=none;" vertex="1" parent="1">
          <mxGeometry x="810" y="480" width="100" height="30" as="geometry" />
        </mxCell>
        <mxCell id="47IN5PAAti82-iw40Oya-30" value="" style="endArrow=classic;html=1;rounded=0;entryX=0;entryY=0.357;entryDx=0;entryDy=0;entryPerimeter=0;exitX=0.875;exitY=1.014;exitDx=0;exitDy=0;exitPerimeter=0;" edge="1" parent="1" source="47IN5PAAti82-iw40Oya-1" target="47IN5PAAti82-iw40Oya-24">
          <mxGeometry width="50" height="50" relative="1" as="geometry">
            <mxPoint x="460" y="560" as="sourcePoint" />
            <mxPoint x="490" y="510" as="targetPoint" />
          </mxGeometry>
        </mxCell>
        <mxCell id="47IN5PAAti82-iw40Oya-31" value="4.调用HandlerAdapter&lt;br&gt;执行Handler" style="text;html=1;align=center;verticalAlign=middle;resizable=0;points=[];autosize=1;strokeColor=none;fillColor=none;rotation=0;" vertex="1" parent="1">
          <mxGeometry x="595" y="360" width="140" height="40" as="geometry" />
        </mxCell>
        <mxCell id="47IN5PAAti82-iw40Oya-33" value="Handler" style="shape=parallelogram;perimeter=parallelogramPerimeter;whiteSpace=wrap;html=1;fixedSize=1;" vertex="1" parent="1">
          <mxGeometry x="800" y="330" width="120" height="60" as="geometry" />
        </mxCell>
        <mxCell id="47IN5PAAti82-iw40Oya-34" value="" style="endArrow=classic;html=1;rounded=0;entryX=0.667;entryY=1;entryDx=0;entryDy=0;entryPerimeter=0;exitX=0.7;exitY=0;exitDx=0;exitDy=0;exitPerimeter=0;" edge="1" parent="1" source="47IN5PAAti82-iw40Oya-26" target="47IN5PAAti82-iw40Oya-33">
          <mxGeometry width="50" height="50" relative="1" as="geometry">
            <mxPoint x="880" y="470" as="sourcePoint" />
            <mxPoint x="930" y="460" as="targetPoint" />
          </mxGeometry>
        </mxCell>
        <mxCell id="47IN5PAAti82-iw40Oya-35" value="5.执行Handler" style="text;html=1;align=center;verticalAlign=middle;resizable=0;points=[];autosize=1;strokeColor=none;fillColor=none;" vertex="1" parent="1">
          <mxGeometry x="870" y="430" width="100" height="30" as="geometry" />
        </mxCell>
        <mxCell id="47IN5PAAti82-iw40Oya-36" value="" style="endArrow=classic;html=1;rounded=0;exitX=0.25;exitY=1;exitDx=0;exitDy=0;entryX=0.22;entryY=0.033;entryDx=0;entryDy=0;entryPerimeter=0;" edge="1" parent="1" source="47IN5PAAti82-iw40Oya-33" target="47IN5PAAti82-iw40Oya-26">
          <mxGeometry width="50" height="50" relative="1" as="geometry">
            <mxPoint x="520" y="460" as="sourcePoint" />
            <mxPoint x="570" y="410" as="targetPoint" />
          </mxGeometry>
        </mxCell>
        <mxCell id="47IN5PAAti82-iw40Oya-37" value="6.执行完返回&lt;br&gt;ModelAndView" style="text;html=1;align=center;verticalAlign=middle;resizable=0;points=[];autosize=1;strokeColor=none;fillColor=none;" vertex="1" parent="1">
          <mxGeometry x="735" y="425" width="100" height="40" as="geometry" />
        </mxCell>
        <mxCell id="47IN5PAAti82-iw40Oya-38" value="" style="endArrow=classic;html=1;rounded=0;entryX=0.5;entryY=1;entryDx=0;entryDy=0;exitX=-0.017;exitY=0.614;exitDx=0;exitDy=0;exitPerimeter=0;" edge="1" parent="1" source="47IN5PAAti82-iw40Oya-24" target="47IN5PAAti82-iw40Oya-1">
          <mxGeometry width="50" height="50" relative="1" as="geometry">
            <mxPoint x="790" y="600" as="sourcePoint" />
            <mxPoint x="570" y="410" as="targetPoint" />
          </mxGeometry>
        </mxCell>
        <mxCell id="47IN5PAAti82-iw40Oya-40" value="7.将ModelAndView返回给&lt;br&gt;&lt;span style=&quot;&quot;&gt;DispatcherServlet&lt;/span&gt;" style="text;html=1;align=center;verticalAlign=middle;resizable=0;points=[];autosize=1;strokeColor=none;fillColor=none;" vertex="1" parent="1">
          <mxGeometry x="520" y="475" width="160" height="40" as="geometry" />
        </mxCell>
        <mxCell id="47IN5PAAti82-iw40Oya-42" value="ViewReslover" style="rounded=0;whiteSpace=wrap;html=1;" vertex="1" parent="1">
          <mxGeometry x="380" y="510" width="120" height="140" as="geometry" />
        </mxCell>
        <mxCell id="47IN5PAAti82-iw40Oya-54" value="" style="edgeStyle=orthogonalEdgeStyle;rounded=0;orthogonalLoop=1;jettySize=auto;html=1;" edge="1" parent="1" source="47IN5PAAti82-iw40Oya-43">
          <mxGeometry relative="1" as="geometry">
            <mxPoint x="440" y="270" as="targetPoint" />
          </mxGeometry>
        </mxCell>
        <mxCell id="47IN5PAAti82-iw40Oya-43" value="视图解析器" style="text;html=1;align=center;verticalAlign=middle;resizable=0;points=[];autosize=1;strokeColor=none;fillColor=none;" vertex="1" parent="1">
          <mxGeometry x="400" y="480" width="80" height="30" as="geometry" />
        </mxCell>
        <mxCell id="47IN5PAAti82-iw40Oya-45" value="8.将ModelAndView&lt;br&gt;传给ViewReslover" style="text;html=1;align=center;verticalAlign=middle;resizable=0;points=[];autosize=1;strokeColor=none;fillColor=none;" vertex="1" parent="1">
          <mxGeometry x="300" y="340" width="130" height="40" as="geometry" />
        </mxCell>
        <mxCell id="47IN5PAAti82-iw40Oya-49" value="9.解析完后生成View&lt;br&gt;返回给&lt;span style=&quot;&quot;&gt;DispatcherServlet&lt;/span&gt;" style="text;html=1;align=center;verticalAlign=middle;resizable=0;points=[];autosize=1;strokeColor=none;fillColor=none;" vertex="1" parent="1">
          <mxGeometry x="445" y="390" width="150" height="40" as="geometry" />
        </mxCell>
        <mxCell id="47IN5PAAti82-iw40Oya-55" value="View" style="whiteSpace=wrap;html=1;" vertex="1" parent="1">
          <mxGeometry x="90" y="420" width="120" height="60" as="geometry" />
        </mxCell>
        <mxCell id="47IN5PAAti82-iw40Oya-57" value="" style="endArrow=classic;html=1;rounded=0;exitX=-0.042;exitY=0.664;exitDx=0;exitDy=0;exitPerimeter=0;entryX=0.5;entryY=0;entryDx=0;entryDy=0;" edge="1" parent="1" source="47IN5PAAti82-iw40Oya-1" target="47IN5PAAti82-iw40Oya-55">
          <mxGeometry width="50" height="50" relative="1" as="geometry">
            <mxPoint x="240" y="320" as="sourcePoint" />
            <mxPoint x="290" y="270" as="targetPoint" />
          </mxGeometry>
        </mxCell>
        <mxCell id="47IN5PAAti82-iw40Oya-58" value="10.渲染视图，将model数据&lt;br&gt;转换为response" style="text;html=1;align=center;verticalAlign=middle;resizable=0;points=[];autosize=1;strokeColor=none;fillColor=none;" vertex="1" parent="1">
          <mxGeometry x="100" y="305" width="170" height="40" as="geometry" />
        </mxCell>
        <mxCell id="47IN5PAAti82-iw40Oya-60" value="11.相应给用户结果" style="text;html=1;align=center;verticalAlign=middle;resizable=0;points=[];autosize=1;strokeColor=none;fillColor=none;" vertex="1" parent="1">
          <mxGeometry x="220" y="205" width="120" height="30" as="geometry" />
        </mxCell>
      </root>
    </mxGraphModel>
  </diagram>
</mxfile>
